<svg xmlns="http://www.w3.org/2000/svg" width="50" height="50" fill="none"><circle cx="25" cy="25" r="25" fill="#F9F4EE"/><path fill="#E97522" d="M32.903 32.04V36h-15.87v-3.15l8.1-7.65c.86-.82 1.44-1.52 1.74-2.1.3-.6.45-1.19.45-1.77 0-.84-.29-1.48-.87-1.92-.56-.46-1.39-.69-2.49-.69-.92 0-1.75.18-2.49.54-.74.34-1.36.86-1.86 1.56l-3.54-2.28c.82-1.22 1.95-2.17 3.39-2.85 1.44-.7 3.09-1.05 4.95-1.05 1.56 0 2.92.26 4.08.78 1.18.5 2.09 1.22 2.73 2.16.66.92.99 2.01.99 3.27 0 1.14-.24 2.21-.72 3.21s-1.41 2.14-2.79 3.42l-4.83 4.56h9.03Z"/></svg>