<svg xmlns="http://www.w3.org/2000/svg" width="50" height="50" fill="none"><circle cx="25" cy="25" r="25" fill="#F9F4EE"/><path fill="#E97522" d="M24.34 22.89c2.96 0 5.14.59 6.54 1.77 1.42 1.18 2.13 2.76 2.13 4.74 0 1.28-.32 2.45-.96 3.51-.64 1.04-1.62 1.88-2.94 2.52-1.3.62-2.91.93-4.83.93-1.48 0-2.94-.19-4.38-.57-1.42-.4-2.63-.96-3.63-1.68l1.92-3.72c.8.6 1.72 1.07 2.76 1.41 1.04.32 2.11.48 3.21.48 1.22 0 2.18-.24 2.88-.72.7-.48 1.05-1.15 1.05-2.01 0-.9-.37-1.58-1.11-2.04-.72-.46-1.98-.69-3.78-.69h-5.37L18.91 15h12.81v3.9h-8.76l-.33 3.99h1.71Z"/></svg>