<svg xmlns="http://www.w3.org/2000/svg" width="50" height="50" fill="none"><circle cx="25" cy="25" r="25" fill="#F9F4EE"/><path fill="#E97522" d="M26.994 23.55c1.84.3 3.25.99 4.23 2.07.98 1.06 1.47 2.38 1.47 3.96 0 1.22-.32 2.35-.96 3.39-.64 1.02-1.62 1.84-2.94 2.46-1.3.62-2.9.93-4.8.93-1.48 0-2.94-.19-4.38-.57-1.42-.4-2.63-.96-3.63-1.68l1.89-3.72c.8.6 1.72 1.07 2.76 1.41 1.06.32 2.14.48 3.24.48 1.22 0 2.18-.23 2.88-.69.7-.48 1.05-1.15 1.05-2.01 0-1.72-1.31-2.58-3.93-2.58h-2.22v-3.21l4.32-4.89h-8.94V15h14.7v3.15l-4.74 5.4Z"/></svg>