<svg width="450" height="475" fill="none" xmlns="http://www.w3.org/2000/svg"><path d="M6.618 190.768C18.794 111.086 68.717 13.192 167.345 2.948c0 0 74.883-9.107 148.701 4.694 43.811 8.192 82.227 32.575 106.535 67.62 24.308 35.045 32.428 77.778 22.574 118.518-6.401 26.461-10.726 53.847-9.539 81.038 2.066 47.322.878 91.494-45.058 119.716-41.015 25.199-92.634 47.423-141.879 51.316-33.466 2.645-70.996-1.635-103.252-10.346C-18.953 391.11-5.558 270.449 6.617 190.768Z" fill="#F4F7FA"/><path d="M259.513 390.046c30.754-17.319 67.46-43.768 95.185-82.082 7.075-9.778 50.784-70.181 28.451-93.05-7.867-8.055-17.285-4.65-27.991-15.237-12.687-12.544-7.584-25.353-11.732-47.659-2.475-13.31-9.717-52.261-39.459-59.107-17.773-4.09-42.776 3.468-57.348 17.014-21.373 19.87-16.115 48.728-6.372 97.403 8.636 43.148 16.834 50.263 22.511 81.442 4.212 23.14 6.569 56.97-3.245 101.276Z" fill="#B3CEE0"/><path d="M256.293 394.135a196.644 196.644 0 0 1-23.692 26.809c-26.771 25.259-60.077 43.304-98.992 53.634l-.463-1.745c38.621-10.252 71.665-28.152 98.215-53.202 94.999-89.633 63.389-237.675 51.438-280.912-6.778-24.519-21.392-47.605-43.436-68.615l1.246-1.307c22.284 21.239 37.065 44.603 43.931 69.441 9.842 35.608 20.017 90.2 12.594 148.062-5.394 42.042-19.095 78.169-40.841 107.835Z" fill="#fff" style="mix-blend-mode:soft-light" opacity=".5"/><path d="m297.561 212.441-.756-.294c-.588-.229-58.959-23.468-73.475-77.608l1.744-.468c13.39 49.941 64.79 73.189 71.635 76.084 40.626-79.234 12.412-127.05 2.768-139.844a9.41 9.41 0 0 1-.48-.67l1.567-.897c.05.079.173.239.355.48 9.835 13.047 38.685 61.881-2.985 142.496l-.373.721Z" fill="#fff" style="mix-blend-mode:soft-light" opacity=".5"/><path d="M365.787 236.452c-11.731 16.003-32.543 35.275-69.099 49.608l-.449.177-.397-.276c-.391-.273-39.44-27.864-64.861-81.194l-25.613-53.732 1.631-.777 25.612 53.732c23.847 50.028 59.746 77.197 63.875 80.209 42.801-16.892 63.619-40.566 73.556-57.48 10.766-18.331 11.394-32.796 11.399-32.94l1.805.063c-.022.607-.651 15.07-11.647 33.791a104.159 104.159 0 0 1-5.812 8.819Z" fill="#fff" style="mix-blend-mode:soft-light" opacity=".5"/><path d="M237.381 389.748c-14.773-11.373-34.645-30.247-45.575-58.612-14.334-37.2-.695-58.039-8.775-122.601-5.109-40.823-9.085-69.26-31.218-82.516-17.344-10.388-43.762-10.208-58.57 2.438-12.31 10.515-18.037 30.88-19 45.112-.786 11.598 1.551 19.736-4.441 26.391-6.125 6.801-13.725 4.032-19.568 9.197-11.85 10.475-1.477 40.323.2 45.147 18.647 53.662 72.923 85.779 96.767 99.503 19.714 11.348 49.937 26.083 90.18 35.941Z" fill="#CFE0ED"/><path d="m225.875 396.216.316-1.161c-34.189-9.302-77.686-28.203-90.751-65.419-4.804-13.684-5.007-28.343-5.288-48.631-.224-16.202 1.079-27.704 2.228-37.853 1.505-13.281 2.693-23.771-.294-38.54-3.029-14.984-9.491-29.542-19.205-43.268l-.982.694c9.616 13.589 16.012 27.993 19.008 42.812 2.949 14.583 1.771 24.991.278 38.167-1.153 10.184-2.461 21.727-2.236 38.001.272 19.638.487 35.146 5.356 49.016 6.229 17.742 19.975 33.05 40.86 45.499 14.098 8.404 31.159 15.363 50.71 20.683Z" fill="#fff" style="mix-blend-mode:soft-light" opacity=".5"/><path d="m129.368 269.819.593-.331c.103-.057 10.367-5.858 20.004-17.93 8.895-11.141 19.08-30.066 17.092-56.951l-1.199.089c1.959 26.496-8.072 45.139-16.833 56.112-8.179 10.245-16.779 15.883-19.065 17.282-11.642-28.17-29.023-44.859-41.6-53.917-13.748-9.901-24.915-13.087-25.026-13.118l-.324 1.158c.11.031 11.11 3.176 24.693 12.969 12.53 9.034 29.885 25.737 41.408 54.008l.257.629Z" fill="#fff" style="mix-blend-mode:soft-light" opacity=".5"/><path d="m131.361 313.545.211-.383c.09-.164 9.157-16.594 21.47-31.285 12.228-14.59 43.48-22.301 43.794-22.377l-.284-1.169c-1.298.315-31.952 7.883-44.432 22.774-11.338 13.528-19.938 28.517-21.387 31.093-34.228-7.06-77.29-81.33-77.722-82.083l-1.043.6c.11.189 11.093 19.213 26.212 38.802 20.355 26.374 38.104 41.16 52.752 43.947l.429.081Z" fill="#fff" style="mix-blend-mode:soft-light" opacity=".5"/><path d="m169.945 372.118-.697-.976c-9.927-13.911-10.201-29.515-.812-46.378 7.033-12.631 17.133-21.239 17.234-21.324l-.776-.919c-.103.087-10.371 8.837-17.509 21.658-9.276 16.66-9.202 32.768.191 46.664-4.105-.196-18.379-1.163-36.495-5.561-19.787-4.804-48.339-14.801-71.988-35.147l-45.974-39.553-.785.912 45.975 39.553c23.84 20.51 52.595 30.577 72.519 35.411 21.582 5.236 37.757 5.631 37.918 5.635l1.199.025Z" fill="#fff" style="mix-blend-mode:soft-light" opacity=".5"/><path d="M168.932 400.068c-23.338 2.799-53.466 3.035-83.442-6.636-7.65-2.468-54.907-17.715-51.913-38.787 1.055-7.422 7.454-9.299 9.037-19.198 1.877-11.73-5.907-16.603-12.46-30.217-3.91-8.123-15.354-31.895-2.073-47.276 7.936-9.19 24.342-14.969 37.502-13.426 19.303 2.263 27.839 19.833 41.767 49.812 12.348 26.576 10.745 33.623 19.97 52.605 6.846 14.087 18.898 33.186 41.612 53.123Z" fill="#FFC5A4"/><path d="M172.271 400.996a130.939 130.939 0 0 0 23.28 5.079c24.324 3.034 49.317-.379 74.287-10.143l-.438-1.12c-24.781 9.691-49.577 13.078-73.7 10.069C109.386 394.116 68.086 302.158 57.485 274.23c-6.012-15.837-7.25-33.988-3.68-53.948l-1.184-.212c-3.609 20.177-2.35 38.543 3.74 54.587 8.73 23 24.756 56.327 51.521 84.487 19.448 20.46 41.03 34.475 64.389 41.852Z" fill="#fff" style="mix-blend-mode:soft-light" opacity=".5"/><path d="m78.577 319.641.29-.455c.226-.354 22.432-35.805 8.916-70.599l-1.121.435c12.467 32.095-5.99 64.808-8.527 69.056-53.014-26.575-56.682-63.361-56.539-74.028a6.228 6.228 0 0 0-.006-.548l-1.195.134c.004.062.001.196-.001.398-.147 10.878 3.58 48.461 57.699 75.367l.484.24Z" fill="#fff" style="mix-blend-mode:soft-light" opacity=".5"/><path d="M51.38 359.383c12.601 3.98 31.366 6.143 56.645-.542l.311-.082.104-.304c.103-.301 10.217-30.486 2.877-69.136l-7.394-38.94-1.182.224 7.394 38.94c6.885 36.256-1.702 64.976-2.734 68.219-29.64 7.768-50.143 3.243-62.139-1.933-12.999-5.609-19.03-13.132-19.09-13.208l-.945.745c.25.317 6.282 7.838 19.559 13.567a69.105 69.105 0 0 0 6.594 2.45Z" fill="#fff" style="mix-blend-mode:soft-light" opacity=".5"/><path d="M362.004 394.988c3.074 2.484 3.248 4.249 3.148 5.109-.16 1.386-1.205 1.924-3.706 4.541-3.384 3.539-2.866 4.013-4.59 5.294-3.803 2.825-9.181 2.638-9.506 1.677-.227-.675 2.205-1.224 4.973-4.43a17.423 17.423 0 0 0 3.65-6.748 16.22 16.22 0 0 0 .55-3.851l5.481-1.592Z" fill="#1D1D1D"/><path d="m351.712 387.421 6.052 10.544c1.458.645 2.852.32 4.144-1.56l-2.361-12.819-7.835 3.835Z" fill="#FC9F9D"/><path d="M344.376 252.179c-5.896 9.952-15.461 29.158-17.396 55.13-1.91 25.634 4.558 45.17 7.267 52.456 5.077 13.652 13.905 27.986 19.033 34.818 3.459-1.446 5.495-3.714 8.954-5.16-.52-1.882-2.124-8.095-3.133-11.796-.782-2.867-2.225-8.173-2.521-9.307-2.483-9.494-.523-16.618-1.206-28.36-.797-13.694-3.936-12.103-3.464-20.324.705-12.276 7.663-15.142 15.651-32.912 5.467-12.163 11.209-24.937 5.932-31.922-6.644-8.791-26.86-3.264-29.117-2.623Z" fill="#575757"/><path d="M387.044 404.633c1.844 1.172 2.957 3.959 2.117 5.713-.826 1.725-2.931 1.18-8.043 2.751-5.475 1.682-6.559 3.382-10.595 3.378-1.631-.001-4.587-.282-4.834-1.378-.174-.771 1.081-1.538 5.214-4.314 5.866-3.94 5.805-4.051 7.115-4.655 3.289-1.518 6.592-3.043 9.026-1.495Z" fill="#1D1D1D"/><path d="m378.286 396.281 2.247 10.264c.314.459 3.514 1.557 5.756 0l-.826-10.264h-7.177Z" fill="#FC9F9D"/><path style="mix-blend-mode:multiply" opacity=".3" d="M373.493 254.802c-6.643-8.791-26.86-3.264-29.117-2.623a128.216 128.216 0 0 0-8.34 16.806c7.165-1.409 10.275-.13 11.724 1.569 5.625 6.594-11.986 21.153-8.365 43.246 1.417 8.641 5.113 12.53 4.437 23.083-.503 7.854-2.944 11.829-4.63 17.578a46.38 46.38 0 0 0-1.834 12.819c5.066 11.132 11.723 21.721 15.912 27.303 3.459-1.446 5.495-3.714 8.954-5.16-.52-1.882-2.124-8.095-3.133-11.796-.782-2.868-2.224-8.173-2.521-9.307-2.483-9.494-.523-16.618-1.206-28.36-.797-13.694-3.935-12.103-3.463-20.324.704-12.276 7.662-15.142 15.65-32.912 5.467-12.163 11.209-24.937 5.932-31.922Z" fill="url(#a)"/><path d="M360.163 257.573a515.176 515.176 0 0 0 4.063 78.683 515.119 515.119 0 0 0 12.446 64.144c.679.383 3.064 1.618 6.117 1.04a8.982 8.982 0 0 0 4.253-2.098 83.212 83.212 0 0 1-.635-16.716c.765-12.102 3.615-14.568 4.838-27.092 1.073-10.982-.057-19.954-.605-24.114-1.686-12.805-3.976-13.068-4.021-20.737-.07-11.808 5.33-16.037 8.299-27.287 1.98-7.506 3.03-18.711-1.95-34.076l-32.805 8.253Z" fill="#575757"/><path d="M348.479 166.201a55.943 55.943 0 0 0-14.793 11.942c-11.991 13.729-19.407 36.319-11.7 43.71 5.243 5.029 17.679 3.505 21.963-2.462 3.15-4.39.882-9.781-.206-17.443-1.17-8.245-1.128-20.203 4.736-35.747Z" fill="#869CA9"/><path d="M395.041 254.845c-4.44-58.511-18.596-82.463-17.359-89.573-1.781-1.281-8.82-3.317-24.766-1.218a26.446 26.446 0 0 0-8.606 5.263c-.7.664-1.363 1.367-1.984 2.106 11.202 2.115 22.614 8.493 26.721 17.528 7.116 17.277-6.099 36.586 0 51.831 3.206 8.011 8.333 15.111 14.455 21.75 6.998-1.745 11.795-4.315 11.539-7.687Z" fill="url(#b)"/><path style="mix-blend-mode:multiply" opacity=".3" d="m392.968 249.32-9.603 2.416c1.674 5.767 3.282 14.421 1.349 24.245-2.669 13.567-9.568 16.544-10.582 28.778-.913 11.006 4.284 13.25 6.773 27.93 2.549 15.044-1.31 22.119-2.117 34.702-.552 8.611.344 19.876 5.585 33.587a9.142 9.142 0 0 0 2.669-1.636 83.212 83.212 0 0 1-.635-16.716c.765-12.102 3.615-14.568 4.838-27.092 1.073-10.982-.057-19.954-.605-24.114-1.686-12.805-3.976-13.068-4.021-20.737-.07-11.808 5.33-16.037 8.299-27.287 1.98-7.506 3.03-18.711-1.95-34.076Z" fill="url(#c)"/><path d="M344.31 169.317s-4.243 3.86-6.717 9.531c-3.727 8.543.287 15.877 1.491 29.829 1.321 15.305-.548 40.8-4.854 49.934a2.172 2.172 0 0 0-.186 1.189c1.164 8.828 61.891 6.827 60.997-4.955-4.44-58.511-18.596-82.463-17.359-89.573-1.781-1.281-8.82-3.317-24.766-1.218a26.446 26.446 0 0 0-8.606 5.263Z" fill="#869CA9"/><path d="M362.361 149.359s3.922 12.307 5.192 13.788c1.27 1.48-5.098 5.351-9.979 3.606-4.482-1.602.004-8.433.004-8.433l4.783-8.961Z" fill="#FC9F9D"/><path d="M346.879 156.055c-2.644-1.12-4.742-4.532-4.288-7.719.391-2.742 2.568-4.361 3.871-5.33 3.775-2.808 9.859-4.073 13.789-1.377 2.329 1.598 2.707 7.499 2.827 8.529.136 1.166-.411 1.909-.68 3.005-.372 1.52-.942 3.924-1.835 7.909a19.317 19.317 0 0 0-2.508-2.213c-.402-.295-1.994-1.44-3.788-2.114-3.597-1.351-4.883.372-7.388-.69Z" fill="#454545"/><path d="M362.718 156.91s-.135 5.901-5.63 8.621c-4.921 2.434-11.769-7.795-10.046-11.803.575-1.337 2.418-2.82 4.33-3.311 1.13-.291 1.692-.077 3.529-.587 1.693-.47 2.015-.874 2.676-.757.827.146 1.898 1.058 2.768 4.703.375-1.439 1.257-2.419 2.237-2.501.346-.01.688.077.987.25 1.366.83 1.155 3.023-.851 5.385Z" fill="#FC9F9D"/><path d="M357.424 148.312c-.13.303 1.063.752 1.814 1.928 1.457 2.285.713 6.471-1.569 8.11-1.35.968-2.242.333-4.752 1.452a12.537 12.537 0 0 0-3.336 2.196c.745 3 2.927 5.158 5.334 5.352 2.591.21 4.504-1.933 5.304-2.83.536-.599 2.253-2.516 2.236-5.098-.018-2.691-1.856-3.256-1.325-5.39.268-1.076.972-1.883 1.052-3.713a7.6 7.6 0 0 0-.041-1.178c-1.973-.588-4.529-1.267-4.717-.829Z" fill="#454545"/><path d="M351.854 161.955s1.334-.058 3.046-1.181c.083-.054.193-.084.229-.046.138.144-.562 1.554-1.778 1.865-.863.221-1.848-.148-1.852-.384-.001-.1.173-.188.355-.254Z" fill="#FC9F9D"/><path style="mix-blend-mode:multiply" opacity=".3" d="M377.918 203.18c-6.627 2.326-15.42 8.862-16.01 17.237-.906 12.864 18.255 19.922 15.702 28.935-.696 2.457-2.897 4.674-17.242 9.85a258.794 258.794 0 0 1-16.092 5.216c17.553 2.586 51.434-.751 50.765-9.574-1.7-22.399-4.823-39.718-7.962-52.982a24.648 24.648 0 0 0-9.161 1.318Z" fill="#4A4A4A" fill-opacity=".49"/><path d="M357.053 229.5c10.779 10.941 26.168 14.387 38 8.914 16.431-7.601 18.972-29.154 15.141-42.642-6.396-22.518-34.271-35.65-43.052-29.651-6.35 4.338-6.29 21.122 1.278 29.524 6.803 7.552 17.253 5.644 20.094 13.337 2.129 5.763-1.984 11.569-2.337 12.053-4.575 6.262-14.546 8.386-23.976 4.086l-5.148 4.379Z" fill="#869CA9"/><path d="M335.713 210.645c.878-2.819 3.729-4.264 5.973-4.576 2.196-.306 5.815.193 7.256 3.063 1.347 2.684.287 6.44-2.81 8.477-.436-1.082-1.217-2.505-2.593-2.936-2.531-.794-4.724 2.503-6.594 1.642-1.49-.687-1.876-3.601-1.232-5.67Z" fill="#FC9F9D"/><path d="m346.063 227.731 8.295 1.441a2.297 2.297 0 0 0 2.607-1.637c.103-.362.115-.744.036-1.113l-3.018-14.029a2.302 2.302 0 0 0-2.126-1.814l-9.932-.531a2.297 2.297 0 0 0-2.397 1.953 2.29 2.29 0 0 0 .106 1.113l4.654 13.119a2.302 2.302 0 0 0 1.775 1.498Z" fill="#fff"/><path d="M360.539 226.534c-.681-4.885-2.74-6.163-3.486-6.527-1.25-.609-1.866-.136-6.23-.205-3.898-.062-4.822-.462-5.315.205-.934 1.263.985 4.582 3.16 6.527 3.049 2.728 6.829 2.962 8.385 2.965l3.486-2.965Z" fill="#FC9F9D"/><path d="m280.957 50.83 39.673 329.677c.595 4.943-2.813 9.375-7.587 9.848l-165.242 18.137c-10.122.63-15.665-4.541-16.289-9.797L89.86 48.193c-.621-5.227 4.345-9.96 14.511-9.96l166.745 3.51c4.827.081 9.249 4.17 9.841 9.087Z" fill="#212121"/><path d="m288.391 50.261 39.891 331.327c.598 4.968-2.821 9.422-7.613 9.899L149.36 408.538c-5.371.535-10.293-3.35-10.921-8.633L96.553 47.592c-.625-5.254 3.32-9.477 8.75-9.386l173.208 2.922c4.846.082 9.285 4.192 9.88 9.133Z" fill="#494949"/><path d="m285.143 68.539 36.973 307.205c.559 4.641-2.643 8.795-7.128 9.231l-161.111 15.657c-4.993.485-9.568-3.14-10.153-8.058L105.016 67.118c-.582-4.892 3.08-8.85 8.123-8.797l162.765 1.733c4.531.048 8.683 3.866 9.239 8.485Z" fill="#FCEBD8"/><path d="M198.747 50.036c.211 1.763-1.055 3.175-2.83 3.153-1.777-.022-3.39-1.473-3.602-3.24-.211-1.768 1.06-3.18 2.837-3.154 1.775.026 3.383 1.477 3.595 3.24Z" fill="#fff"/><path d="M257.29 274.753c-32.983-60.967-82.254-79.216-97.089-142.05-8.018-33.963-2.555-66.471 6.647-93.458l-61.541-1.038c-5.43-.092-9.374 4.131-8.75 9.385l41.886 352.313c.628 5.284 5.55 9.168 10.921 8.633l134.666-13.404c.996-54.629-12.037-93.205-26.74-120.381Z" fill="#fff" style="mix-blend-mode:soft-light" opacity=".2"/><path d="M165.265 420.016v-.002c.173-.395 13.991-31.582 63.089-98.747 19.997-27.356 10.777-77.918 1.035-131.337-9.926-54.429-20.168-110.587 1.746-139.47 10.099-13.312 26.125-19.78 48.83-19.852l-.742-5.33c-24.159.038-41.333 7.033-52.318 21.472-23.279 30.603-12.812 88.032-2.666 143.696 9.525 52.26 18.54 101.721-.151 127.223-49.752 67.884-63.309 98.543-63.864 99.821l5.041 2.526Z" fill="#fff"/><path d="m149.113 150.589 166.09-2.191-.636-5.346-162.82 1.895-60.44-96.289-4.63 2.563 62.436 99.368ZM285.022 438.354l5.12-.495-8.343-71.531-91.273 6.917-11.639-102.905 149.984-7.015-.641-5.393-155.367 7.021 12.913 114.387 91.549-7.084 7.697 66.098Z" fill="#fff"/><path d="m88.453 223.089 72.906-2.387-8.219-72.968-5.418.068 7.582 67.442-67.481 2.103.63 5.742ZM210.68 147.34c.602 5.248 5.133 9.443 10.107 9.368 4.959-.076 8.48-4.371 7.876-9.593-.603-5.219-5.102-9.409-10.06-9.361-4.973.049-8.526 4.34-7.923 9.586Z" fill="#fff"/><path d="M149.066 218.033c.604 5.38 5.297 9.598 10.47 9.419 5.157-.178 8.837-4.663 8.233-10.015-.604-5.35-5.263-9.564-10.42-9.414-5.171.151-8.886 4.632-8.283 10.01ZM228.403 264.999c.609 5.29 5.138 9.383 10.103 9.142 4.951-.241 8.46-4.704 7.851-9.967-.609-5.26-5.105-9.35-10.056-9.137-4.964.215-8.506 4.674-7.898 9.962ZM180.241 373.784c.611 5.424 5.284 9.496 10.423 9.093 5.125-.403 8.772-5.104 8.16-10.5-.612-5.394-5.251-9.463-10.375-9.09-5.138.375-8.819 5.074-8.208 10.497Z" fill="#fff"/><path d="M229.705 104.667c-4.407-4.608-11.418-3.95-13.693-3.737-2.687.253-7.913.742-11.143 4.804-5.446 6.848-1.141 18.687.328 22.728 3.615 9.939 10.313 15.822 14.191 18.654.56.065 1.755.418 2.308-.127 3.094-3.049 6.5-9.454 8.984-16.883 1.013-3.031 6.05-18.095-.975-25.439Z" fill="#717171"/><path d="M221.55 147.117c-3.878-2.833-10.576-8.717-14.19-18.655-1.469-4.041-5.775-15.88-.329-22.727 3.231-4.063 8.457-4.553 11.143-4.805 2.275-.213 9.286-.871 13.693 3.737 7.025 7.344 1.988 22.408.975 25.439a39.552 39.552 0 0 1-11.292 17.011Z" fill="#EE6E23"/><path d="M227.965 117.87c0 4.978-3.721 8.979-8.318 8.935-4.606-.043-8.347-4.129-8.347-9.125s3.741-8.996 8.347-8.935c4.597.061 8.318 4.146 8.318 9.125Z" fill="#F4F7FA"/><path d="M166.843 177.591c-4.407-4.608-11.418-3.95-13.692-3.737-2.687.252-7.913.742-11.143 4.804-5.446 6.848-1.141 18.687.328 22.728 3.614 9.938 10.313 15.821 14.191 18.654.56.064 1.755.418 2.308-.127 3.094-3.049 6.5-9.454 8.984-16.883 1.013-3.031 6.049-18.096-.976-25.439Z" fill="#717171"/><path d="M158.691 220.04c-3.878-2.833-10.576-8.716-14.19-18.654-1.47-4.041-5.775-15.88-.329-22.728 3.231-4.062 8.456-4.552 11.143-4.804 2.275-.214 9.285-.871 13.693 3.736 7.024 7.344 1.988 22.409.975 25.44a39.549 39.549 0 0 1-11.292 17.01Z" fill="#EE6E23"/><path d="M165.104 190.792c0 4.978-3.721 8.979-8.318 8.935-4.607-.043-8.347-4.129-8.347-9.125s3.74-8.997 8.347-8.935c4.597.061 8.318 4.146 8.318 9.125Z" fill="#F4F7FA"/><path d="M246.379 229.21c-4.408-4.608-11.418-3.95-13.693-3.737-2.687.252-7.913.742-11.143 4.804-5.446 6.848-1.141 18.687.328 22.728 3.614 9.938 10.313 15.822 14.191 18.654.56.064 1.755.418 2.308-.127 3.094-3.049 6.5-9.454 8.984-16.883 1.013-3.031 6.05-18.095-.975-25.439Z" fill="#717171"/><path d="M238.224 271.66c-3.878-2.833-10.576-8.717-14.19-18.655-1.47-4.041-5.775-15.88-.329-22.727 3.231-4.063 8.456-4.553 11.143-4.805 2.275-.213 9.286-.871 13.693 3.737 7.025 7.344 1.988 22.408.975 25.439a39.552 39.552 0 0 1-11.292 17.011Z" fill="#EE6E23"/><path d="M244.637 242.411c0 4.978-3.721 8.979-8.318 8.935-4.606-.043-8.347-4.129-8.347-9.125s3.741-8.996 8.347-8.935c4.597.061 8.318 4.146 8.318 9.125Z" fill="#F4F7FA"/><path d="M201.129 331.282c-4.408-4.608-11.418-3.95-13.693-3.737-2.687.253-7.913.742-11.143 4.805-5.446 6.847-1.141 18.687.328 22.727 3.615 9.939 10.313 15.822 14.191 18.655.56.064 1.755.417 2.308-.128 3.094-3.049 6.5-9.454 8.984-16.883 1.013-3.031 6.05-18.095-.975-25.439Z" fill="#717171"/><path d="M192.974 373.732c-3.878-2.833-10.576-8.716-14.19-18.655-1.47-4.04-5.775-15.88-.329-22.727 3.231-4.062 8.456-4.552 11.143-4.805 2.275-.213 9.286-.871 13.693 3.737 7.025 7.344 1.988 22.408.975 25.439a39.552 39.552 0 0 1-11.292 17.011Z" fill="#EE6E23"/><path d="M199.387 344.483c0 4.979-3.721 8.979-8.318 8.936-4.606-.044-8.347-4.129-8.347-9.125 0-4.997 3.741-8.997 8.347-8.936 4.597.061 8.318 4.146 8.318 9.125Z" fill="#F4F7FA"/><defs><linearGradient id="a" x1="41510.8" y1="370993" x2="106332" y2="300633" gradientUnits="userSpaceOnUse"><stop stop-color="#AA80F9"/><stop offset=".996" stop-color="#6165D7"/></linearGradient><linearGradient id="b" x1="-86507.7" y1="101785" x2="-119923" y2="164663" gradientUnits="userSpaceOnUse"><stop stop-color="#311944"/><stop offset="1" stop-color="#893976"/></linearGradient><linearGradient id="c" x1="39698.7" y1="340909" x2="64426.2" y2="335115" gradientUnits="userSpaceOnUse"><stop stop-color="#AA80F9"/><stop offset=".996" stop-color="#6165D7"/></linearGradient></defs></svg>