<svg width="450" height="484" fill="none" xmlns="http://www.w3.org/2000/svg"><path d="M155.046 383.186c-36.698-20.654-80.499-52.197-113.583-97.892-8.443-11.661-60.6-83.699-33.95-110.972 9.388-9.607 20.626-5.546 33.402-18.171 15.138-14.96 9.05-30.237 13.999-56.84C57.867 83.439 66.509 36.986 102 28.822c21.208-4.88 51.044 4.135 68.432 20.29 25.504 23.697 19.229 58.114 7.604 116.164-10.306 51.459-20.088 59.944-26.862 97.129-5.027 27.597-7.839 67.942 3.872 120.782Z" fill="#B3CEE0"/><path d="M158.887 388.063a234.702 234.702 0 0 0 28.271 31.973c31.946 30.124 71.688 51.645 118.125 63.964l.553-2.082c-46.086-12.226-85.517-33.573-117.198-63.448-113.36-106.898-75.641-283.453-61.38-335.018 8.088-29.242 25.526-56.775 51.832-81.832L177.602.062c-26.591 25.33-44.228 53.193-52.421 82.816-11.745 42.466-23.887 107.573-15.029 176.58 6.436 50.139 22.786 93.226 48.735 128.605Z" fill="#fff" style="mix-blend-mode:soft-light" opacity=".5"/><path d="m109.642 171.374.903-.351c.701-.272 70.354-27.987 87.676-92.556l-2.082-.558c-15.978 59.561-77.313 87.287-85.48 90.738C62.18 74.152 95.848 17.127 107.356 1.869c.319-.424.513-.693.572-.799L106.058 0c-.06.094-.206.284-.423.573-11.736 15.56-46.162 73.8 3.562 169.941l.445.86Z" fill="#fff" style="mix-blend-mode:soft-light" opacity=".5"/><path d="M28.232 200.01c13.999 19.086 38.833 42.069 82.455 59.163l.536.211.473-.329c.467-.325 47.063-33.231 77.398-96.833l30.563-64.081-1.946-.927-30.563 64.081c-28.456 59.664-71.294 92.067-76.22 95.659-51.073-20.146-75.916-48.38-87.773-68.552-12.847-21.861-13.596-39.113-13.602-39.284l-2.155.075c.026.724.777 17.972 13.898 40.299a124.047 124.047 0 0 0 6.936 10.518Z" fill="#fff" style="mix-blend-mode:soft-light" opacity=".5"/><path d="M181.455 382.834c17.629-13.564 41.341-36.073 54.383-69.901 17.105-44.365.83-69.218 10.472-146.216 6.096-48.686 10.841-82.6 37.252-98.41 20.696-12.388 52.22-12.174 69.889 2.908 14.691 12.54 21.525 36.828 22.674 53.801.937 13.833-1.851 23.537 5.299 31.474 7.308 8.112 16.377 4.809 23.35 10.969 14.14 12.493 1.763 48.09-.238 53.843-22.252 63.998-87.018 102.3-115.47 118.668-23.526 13.534-59.59 31.107-107.611 42.864Z" fill="#CFE0ED"/><path d="m195.186 390.545-.377-1.384c40.797-11.094 92.701-33.635 108.291-78.019 5.733-16.321 5.975-33.803 6.31-57.999.268-19.322-1.287-33.04-2.658-45.143-1.795-15.839-3.213-28.35.35-45.963 3.616-17.871 11.326-35.232 22.917-51.602l1.172.828c-11.475 16.206-19.106 33.385-22.682 51.058-3.518 17.392-2.112 29.804-.331 45.518 1.376 12.145 2.936 25.911 2.668 45.321-.325 23.42-.581 41.915-6.391 58.457-7.432 21.158-23.836 39.415-48.757 54.262-16.823 10.023-37.182 18.322-60.512 24.666Z" fill="#fff" style="mix-blend-mode:soft-light" opacity=".5"/><path d="m310.346 239.802-.708-.394c-.122-.069-12.371-6.986-23.87-21.383-10.614-13.288-22.768-35.857-20.396-67.921l1.431.106c-2.337 31.6 9.633 53.833 20.086 66.92 9.76 12.219 20.023 18.942 22.751 20.611 13.891-33.596 34.632-53.5 49.641-64.303 16.405-11.807 29.73-15.607 29.863-15.644l.386 1.381c-.131.037-13.258 3.788-29.466 15.467-14.951 10.774-35.661 30.694-49.412 64.41l-.306.75Z" fill="#fff" style="mix-blend-mode:soft-light" opacity=".5"/><path d="m307.967 291.953-.251-.457c-.107-.196-10.927-19.791-25.62-37.311-14.592-17.4-51.883-26.596-52.258-26.687l.338-1.394c1.55.376 38.128 9.401 53.021 27.16 13.529 16.133 23.792 34.01 25.521 37.082 40.843-8.42 92.228-96.995 92.744-97.893l1.244.715c-.13.226-13.237 22.914-31.278 46.276-24.289 31.454-45.469 49.088-62.948 52.411l-.513.098Z" fill="#fff" style="mix-blend-mode:soft-light" opacity=".5"/><path d="m261.925 361.808.831-1.164c11.846-16.591 12.172-35.2.969-55.311-8.392-15.064-20.444-25.329-20.565-25.431l.926-1.096c.123.104 12.375 10.539 20.893 25.829 11.069 19.869 10.981 39.08-.228 55.653 4.899-.235 21.932-1.388 43.549-6.633 23.612-5.729 57.682-17.651 85.902-41.916l54.86-47.172.936 1.088-54.86 47.171c-28.447 24.461-62.761 36.467-86.536 42.232-25.754 6.244-45.055 6.716-45.247 6.72l-1.43.03Z" fill="#fff" style="mix-blend-mode:soft-light" opacity=".5"/><path d="M263.135 395.141c27.848 3.338 63.8 3.62 99.569-7.914 9.128-2.944 65.519-21.127 61.947-46.258-1.259-8.852-8.895-11.09-10.784-22.896-2.239-13.989 7.049-19.801 14.869-36.037 4.666-9.687 18.321-38.038 2.473-56.381-9.47-10.961-29.047-17.853-44.751-16.013-23.033 2.699-33.219 23.654-49.84 59.407-14.733 31.694-12.82 40.099-23.829 62.736-8.169 16.801-22.55 39.579-49.654 63.356Z" fill="#FFC5A4"/><path d="M259.151 396.248a156.356 156.356 0 0 1-27.779 6.056c-29.025 3.619-58.85-.451-88.645-12.096l.522-1.335c29.571 11.556 59.16 15.597 87.945 12.008 102.997-12.839 152.279-122.509 164.929-155.816 7.174-18.888 8.652-40.535 4.392-64.339l1.413-.252c4.306 24.063 2.805 45.966-4.463 65.1-10.418 27.43-29.541 67.177-61.479 100.76-23.207 24.401-48.96 41.115-76.835 49.914Z" fill="#fff" style="mix-blend-mode:soft-light" opacity=".5"/><path d="m370.951 299.222-.346-.544c-.27-.422-26.767-42.701-10.639-84.196l1.338.519c-14.878 38.276 7.147 77.29 10.175 82.356 63.261-31.693 67.638-75.565 67.466-88.286a7.606 7.606 0 0 1 .007-.654l1.426.16c-.004.074-.001.234.002.474.175 12.973-4.273 57.796-68.851 89.884l-.578.287Z" fill="#fff" style="mix-blend-mode:soft-light" opacity=".5"/><path d="M403.407 346.619c-15.038 4.747-37.43 7.326-67.595-.647l-.37-.098-.125-.363c-.123-.358-12.191-36.358-3.433-82.451l8.824-46.441 1.411.268-8.825 46.44c-8.215 43.239 2.032 77.491 3.263 81.358 35.369 9.264 59.835 3.868 74.149-2.305 15.512-6.69 22.709-15.662 22.78-15.752l1.128.888c-.299.379-7.497 9.348-23.339 16.181a82.886 82.886 0 0 1-7.868 2.922Z" fill="#fff" style="mix-blend-mode:soft-light" opacity=".5"/></svg>