<svg width="88" height="104" fill="none" xmlns="http://www.w3.org/2000/svg"><g style="mix-blend-mode:multiply" clip-path="url(#a)"><path d="M33.43 20.377c-.372 1.816-1.277 3.215-2.715 4.198-1.436.983-3.036 1.294-4.8.932l-5.197-1.065 1.782-8.688 3.354.688-1.132 5.523 1.842.377c.888.182 1.673.035 2.353-.443.68-.475 1.12-1.2 1.32-2.177.2-.975.081-1.817-.356-2.523-.438-.706-1.1-1.15-1.99-1.332l-7.039-1.443a6.253 6.253 0 0 1-2.858-1.36 6.186 6.186 0 0 1-1.188-1.384 6.382 6.382 0 0 1-.89-4.675l.101-.496c.4-1.7 1.287-3.02 2.66-3.957 1.437-.983 3.037-1.294 4.8-.933l5.197 1.066-1.78 8.689-3.355-.688 1.132-5.524-1.842-.378c-.888-.182-1.672-.035-2.353.442-.68.477-1.121 1.202-1.321 2.178-.2.977-.081 1.818.357 2.523.438.706 1.1 1.15 1.989 1.333l7.04 1.444c1.763.361 3.112 1.276 4.045 2.743.936 1.469 1.217 3.112.844 4.93Z" fill="#4A4A4A"/><path d="m48.785 6.775-2.999-.615-5.156 9.004 2.668.547.698-1.309 3.205.658.127 1.477 2.654.544-1.197-10.306Zm-3.72 5.633L46.7 9.323l.304 3.483-1.94-.398ZM56.583 8.374l-3.92-.804-1.314 6.41 2.53.52.826-4.025 1.389.285a2.193 2.193 0 0 1 1.5 1.005c.33.532.419 1.166.268 1.902-.15.736-.482 1.283-.996 1.643a2.2 2.2 0 0 1-1.773.333l-3.92-.804-.49 2.387 3.92.803c1.33.273 2.536.038 3.62-.702 1.083-.741 1.766-1.797 2.046-3.167.281-1.37.07-2.609-.635-3.716-.705-1.108-1.722-1.798-3.051-2.07ZM66.32 10.37l-3.92-.804-.489 2.387 3.92.803a2.194 2.194 0 0 1 1.5 1.005c.33.532.42 1.166.269 1.902-.151.736-.483 1.283-.996 1.643a2.2 2.2 0 0 1-1.774.333l-1.39-.285.826-4.023-2.53-.52-1.315 6.41 3.92.804c1.329.273 2.535.039 3.619-.702s1.766-1.797 2.047-3.167c.28-1.37.069-2.608-.636-3.716-.704-1.107-1.721-1.797-3.05-2.07Z" fill="#E97522"/><path d="M43.73 19.054a3.464 3.464 0 0 1 2.254 1.454c.53.77.694 1.647.492 2.63-.201.985-.697 1.726-1.487 2.225a3.473 3.473 0 0 1-2.644.45l-1.279-.262-.594 2.896-2.462-.504 1.98-9.656 3.74.767Zm-.904 4.414a.946.946 0 0 0 .754-.147 1.044 1.044 0 0 0 .435-.687 1.021 1.021 0 0 0-.131-.796.964.964 0 0 0-.637-.425l-1.279-.262-.421 2.055 1.279.262ZM53.303 21.016l2.448.502-1.98 9.656-2.447-.502.76-3.71-2.71-.556-.76 3.71-2.462-.505 1.98-9.655 2.462.505-.733 3.572 2.71.556.732-3.573ZM63.813 31.931a5.249 5.249 0 0 1-7.166-1.469 4.942 4.942 0 0 1-.73-3.88 4.955 4.955 0 0 1 2.198-3.279 5.248 5.248 0 0 1 7.166 1.47 4.945 4.945 0 0 1 .73 3.88 4.954 4.954 0 0 1-2.198 3.278ZM58.72 29.12a2.798 2.798 0 0 0 4.822-.087 2.817 2.817 0 0 0-.618-3.526 2.794 2.794 0 0 0-3.571-.048c-.508.41-.858.985-.99 1.625a2.598 2.598 0 0 0 .357 2.036ZM74.264 25.313l-.49 2.387-2.379-.488-1.49 7.269-2.462-.505 1.49-7.269-2.38-.488.49-2.386 7.22 1.48ZM81.212 35.499a5.248 5.248 0 0 1-7.165-1.47 4.942 4.942 0 0 1-.731-3.879 4.955 4.955 0 0 1 2.198-3.28 5.248 5.248 0 0 1 7.166 1.47 4.945 4.945 0 0 1 .73 3.88 4.955 4.955 0 0 1-2.198 3.279Zm-5.091-2.812a2.798 2.798 0 0 0 4.822-.086 2.817 2.817 0 0 0-.618-3.527 2.794 2.794 0 0 0-3.572-.047c-.508.41-.858.984-.99 1.625a2.6 2.6 0 0 0 .358 2.035Z" fill="#B1B1B1"/></g><g style="mix-blend-mode:multiply" fill="#989898"><path d="m2.874 76.93 1.25-5.338 1.729.404c.655.154 1.076.28 1.263.38.287.152.502.387.645.704.144.316.166.686.067 1.11-.077.328-.2.59-.372.785a1.512 1.512 0 0 1-.579.422 1.6 1.6 0 0 1-.615.12c-.27-.008-.648-.07-1.136-.184l-.703-.165-.47 2.014-1.079-.252Zm2.116-4.183-.355 1.515.59.138c.425.099.715.138.872.115a.729.729 0 0 0 .617-.57.708.708 0 0 0-.059-.52.766.766 0 0 0-.378-.338c-.123-.055-.378-.127-.767-.218l-.52-.122ZM10.179 77.34l.979.41c-.218.343-.493.58-.823.71-.327.128-.703.143-1.127.043-.673-.157-1.119-.493-1.34-1.008-.172-.411-.195-.885-.07-1.422.15-.64.435-1.103.855-1.386.42-.286.886-.369 1.398-.249.575.135.985.431 1.228.89.244.457.267 1.075.07 1.856l-2.564-.6c-.064.305-.037.561.081.768a.798.798 0 0 0 .531.39c.16.037.306.025.435-.037.13-.062.245-.183.347-.365Zm.3-1.02c.062-.298.038-.54-.072-.727a.72.72 0 0 0-.477-.358.73.73 0 0 0-.61.115c-.184.128-.308.333-.37.612l1.529.358ZM13.302 79.37l.386-1.65c-.136-.022-.236-.013-.302.025-.062.037-.187.162-.376.377l-.749 1.004-1.1-.258.796-.939c.402-.469.761-.707 1.078-.715-.204-.138-.324-.397-.36-.78-.027-.285-.073-.462-.136-.53-.06-.071-.227-.138-.499-.202l.159-.677c.204.035.346.062.426.08.226.053.408.148.544.285.137.137.23.42.278.849.037.334.079.55.125.647.047.096.135.161.265.197l.37-1.58 1.016.237-.37 1.58c.131.031.24.012.325-.058.088-.07.22-.244.4-.525.229-.358.433-.57.613-.636.181-.065.395-.069.64-.012.07.017.205.055.403.114l-.158.677c-.27-.063-.448-.076-.536-.04-.087.033-.206.171-.358.415-.202.326-.424.506-.668.539.28.147.497.52.649 1.12l.296 1.194-1.1-.258-.222-1.23c-.041-.22-.09-.375-.149-.465a.487.487 0 0 0-.284-.198l-.386 1.65-1.016-.238ZM17.866 76.359l.983.23-.568 2.428 2.141-2.06 1.005.235-.904 3.866-.984-.23.579-2.472-2.173 2.1-.983-.23.904-3.867ZM22.509 77.445l1.267.296.33 2.92 1.6-2.469 1.263.296-.905 3.867-.87-.204.595-2.545-1.538 2.325-.874-.205-.304-2.755-.595 2.545-.874-.205.905-3.866ZM30.046 79.208l.953.223-.133.568a1.466 1.466 0 0 1 1.359-.373c.45.105.789.37 1.02.795.23.425.273.952.125 1.58-.15.647-.426 1.112-.826 1.398-.399.283-.823.371-1.272.266a1.35 1.35 0 0 1-.552-.263 2.02 2.02 0 0 1-.444-.565l-.456 1.948-1.023-.24 1.248-5.337Zm.575 2.105c-.102.434-.091.776.033 1.025.123.247.31.399.557.457a.761.761 0 0 0 .66-.145c.203-.155.355-.45.456-.884.095-.406.084-.726-.032-.96a.775.775 0 0 0-.536-.437.804.804 0 0 0-.69.146c-.21.153-.36.419-.448.797ZM35.122 81.64l-.89-.385c.192-.35.437-.584.734-.704s.696-.121 1.199-.004c.456.107.783.241.98.403.2.159.324.332.374.521.054.187.029.502-.075.946l-.29 1.192c-.08.34-.123.595-.13.765-.003.168.019.355.065.56l-1.012-.237a3.862 3.862 0 0 1-.028-.325 1.918 1.918 0 0 0-.008-.129 1.894 1.894 0 0 1-.65.252 1.65 1.65 0 0 1-.667-.022c-.398-.093-.687-.275-.867-.545a1.11 1.11 0 0 1-.15-.899c.05-.218.148-.4.292-.546.145-.148.321-.245.529-.29.21-.049.501-.065.872-.05.499.022.85.015 1.053-.02l.023-.101c.046-.197.03-.348-.047-.453-.078-.108-.25-.193-.52-.256-.182-.043-.333-.04-.452.01-.118.046-.23.152-.335.317Zm1.175 1.15a6.593 6.593 0 0 1-.66.011c-.298-.006-.497.01-.599.048a.438.438 0 0 0-.284.314.515.515 0 0 0 .073.409c.083.129.206.213.371.252a.91.91 0 0 0 .571-.059.658.658 0 0 0 .323-.281c.047-.082.1-.245.157-.49l.048-.204ZM42.059 80.336l.695.163c-.094.303-.23.518-.408.646-.175.125-.537.124-1.086-.005a5.498 5.498 0 0 1-.195-.05l-.132-.03c-.325-.076-.598-.102-.819-.076a.99.99 0 0 0-.6.297c-.176.176-.32.493-.433.95.217-.248.46-.415.731-.5.274-.085.576-.088.906-.011.507.119.89.417 1.15.895.26.476.329.973.207 1.493a2 2 0 0 1-.883 1.264c-.46.302-.988.383-1.585.243a2.032 2.032 0 0 1-1.013-.548 1.684 1.684 0 0 1-.478-.96c-.053-.374.012-.955.197-1.744.217-.927.542-1.554.977-1.88.437-.325 1.08-.388 1.93-.19l.517.122c.143.033.25.007.322-.079Zm-2.893 3.076c-.082.351-.06.651.066.898a.85.85 0 0 0 .577.458.858.858 0 0 0 .747-.16c.228-.172.38-.425.459-.76.08-.342.054-.639-.076-.89a.85.85 0 0 0-.585-.47.857.857 0 0 0-.724.156c-.228.165-.383.42-.464.767ZM42.717 84.154c.08-.34.24-.65.482-.928.242-.279.536-.466.88-.562a2.18 2.18 0 0 1 1.09-.01c.585.137 1.02.44 1.304.908.286.466.36.99.225 1.57-.137.584-.44 1.025-.91 1.323-.465.295-.984.376-1.557.242a2.316 2.316 0 0 1-.96-.478 1.697 1.697 0 0 1-.567-.874c-.095-.35-.09-.747.013-1.19Zm1.036.3c-.09.384-.067.699.067.945a.89.89 0 0 0 .602.463.88.88 0 0 0 .742-.149c.23-.161.39-.436.48-.824.09-.379.066-.691-.068-.938a.88.88 0 0 0-.599-.462.89.89 0 0 0-.745.148c-.23.161-.39.433-.479.817ZM47.304 83.246l3.499.818-.193.827-1.238-.29-.712 3.04-1.023-.24.712-3.04-1.238-.289.193-.826ZM51.426 84.21l1.023.24-.376 1.605 1.027.24c.403.094.703.195.9.303.201.106.352.272.453.497.103.227.124.47.063.73-.087.373-.282.625-.583.754-.301.127-.71.13-1.224.01l-2.188-.513.905-3.866Zm.27 3.458.95.222c.248.058.436.061.566.01.13-.052.215-.165.256-.34.044-.187.001-.331-.129-.433-.127-.104-.377-.2-.75-.287l-.663-.155-.23.983Zm4.044-2.449 1.023.24-.904 3.866-1.023-.239.904-3.867ZM57.747 86.768l.24-1.023 1.023.24-.24 1.022-1.023-.24Zm-.665 2.844.24-1.024 1.023.24-.24 1.023-1.023-.24ZM.312 88.128l1.177-5.029 3.35.784-1.177 5.028-.564-.132 1.037-4.434-2.22-.52L.876 88.26l-.565-.132ZM4.747 89.165l1.093-4.671.717.168-.478 2.042 1.977.463.478-2.043.721.169-1.093 4.671-.72-.168.488-2.09-1.977-.463-.489 2.09-.717-.168ZM9.313 88.544l.154-.66 2.013.472-.154.659-2.013-.471ZM11.781 90.81l1.177-5.027 3.35.783-1.177 5.029-.564-.132 1.037-4.435-2.22-.52-1.038 4.435-.565-.132ZM17.564 92.164l.966-4.133-1.795-.42.126-.539 4.311 1.009-.126.539-1.795-.42-.967 4.132-.72-.168ZM23.171 90.699c.148-.631.33-1.123.55-1.477.22-.355.483-.607.787-.756.306-.149.653-.178 1.042-.087.286.067.524.184.712.351.19.165.33.373.419.624.09.25.139.54.146.871.007.33-.051.76-.175 1.288-.146.627-.33 1.118-.548 1.474-.219.353-.481.605-.788.756-.303.15-.65.178-1.042.087-.514-.12-.875-.4-1.083-.837-.248-.527-.254-1.291-.02-2.294Zm.674.158c-.205.876-.24 1.484-.104 1.822.139.338.358.541.66.612.3.07.587-.016.86-.26.274-.243.513-.801.717-1.675.206-.879.24-1.487.1-1.824-.136-.337-.357-.54-.663-.612a.863.863 0 0 0-.81.213c-.302.273-.555.847-.76 1.724ZM27.093 93.091l.644.09c-.016.308.036.547.155.715.119.169.296.28.532.336.201.047.388.042.56-.015.175-.056.328-.15.461-.28a2.26 2.26 0 0 0 .39-.569 3.378 3.378 0 0 0 .313-.91 1.553 1.553 0 0 1-1.438.405 1.53 1.53 0 0 1-1.01-.743c-.23-.392-.284-.85-.162-1.375.127-.541.388-.94.783-1.195a1.649 1.649 0 0 1 1.317-.214c.348.08.642.248.885.502.245.255.401.573.468.955.07.38.028.897-.125 1.553-.16.682-.36 1.208-.604 1.579-.242.368-.535.624-.878.766-.34.143-.708.168-1.1.076-.418-.097-.732-.292-.943-.585-.21-.295-.293-.658-.248-1.09Zm3.235-1.728c.088-.376.057-.698-.093-.966a.962.962 0 0 0-.643-.5c-.292-.068-.573-.009-.845.179-.271.187-.452.47-.54.849-.08.34-.043.64.111.901.157.26.386.425.687.495.304.071.577.024.82-.142.247-.168.415-.44.503-.816ZM31.951 92.238l.175-.746.746.175-.175.746-.746-.175Zm-.73 3.12.175-.746.746.175-.175.746-.746-.174ZM33.548 93.127c.148-.631.33-1.124.55-1.477.22-.355.483-.608.787-.757.306-.148.653-.177 1.042-.086.286.067.524.184.712.35.19.165.33.373.419.625.09.249.139.54.145.871.008.33-.05.759-.174 1.288-.147.626-.33 1.117-.548 1.473-.219.354-.481.606-.788.757-.304.149-.65.178-1.042.086-.514-.12-.875-.4-1.083-.837-.248-.526-.254-1.29-.02-2.293Zm.674.157c-.205.876-.24 1.484-.104 1.823.139.337.358.541.66.611.3.07.587-.016.859-.26.274-.242.514-.8.718-1.675.206-.878.24-1.486.1-1.823-.136-.337-.357-.54-.663-.612a.863.863 0 0 0-.81.213c-.302.273-.555.847-.76 1.723ZM37.699 94.098c.148-.631.33-1.124.549-1.477.221-.355.484-.608.788-.757.306-.148.653-.177 1.041-.086.287.067.524.184.713.35.19.165.329.373.419.625.09.249.138.54.145.871.008.33-.05.759-.174 1.288-.147.626-.33 1.117-.548 1.473-.219.354-.481.606-.788.757-.304.149-.651.178-1.042.086-.514-.12-.875-.399-1.083-.837-.248-.526-.255-1.29-.02-2.293Zm.674.157c-.206.877-.24 1.484-.104 1.823.138.337.358.541.66.611.3.07.587-.016.859-.26.274-.242.514-.8.718-1.675.206-.878.24-1.486.1-1.823-.136-.337-.357-.54-.663-.612a.862.862 0 0 0-.81.213c-.302.273-.556.847-.76 1.723ZM43.611 96.568l.154-.66 2.014.472-.154.659-2.014-.471ZM50.336 99.83l-.655-.153.977-4.176a3.456 3.456 0 0 1-.728.306c-.29.09-.546.15-.768.178l.149-.634c.407-.087.776-.22 1.107-.401.332-.181.582-.374.75-.578l.422.1-1.254 5.359ZM53.704 97.566c-.248-.163-.416-.353-.504-.568a1.145 1.145 0 0 1-.042-.708 1.33 1.33 0 0 1 .648-.882c.34-.2.743-.245 1.207-.136.466.109.81.333 1.03.67.22.337.286.699.195 1.087a1.12 1.12 0 0 1-.349.602c-.17.152-.4.247-.688.285.303.183.511.414.625.691.117.279.137.583.06.913a1.574 1.574 0 0 1-.754 1.037c-.395.235-.857.291-1.383.168-.527-.123-.916-.378-1.166-.764a1.604 1.604 0 0 1-.21-1.282c.08-.347.236-.617.465-.809.233-.194.521-.295.866-.304Zm.13-1.142a.854.854 0 0 0 .098.677.888.888 0 0 0 .578.388.868.868 0 0 0 .674-.092.813.813 0 0 0 .381-.529.83.83 0 0 0-.11-.663.862.862 0 0 0-.56-.392.881.881 0 0 0-.68.094.794.794 0 0 0-.382.517Zm-.789 2.416c-.044.187-.042.378.004.573.05.196.15.363.302.5.152.136.33.228.531.275.313.073.595.033.846-.121s.413-.386.486-.696a1.102 1.102 0 0 0-.848-1.35 1.07 1.07 0 0 0-.84.125c-.249.157-.41.388-.48.694ZM57.264 98.16l.174-.746.746.174-.174.747-.746-.175Zm-.73 3.121.174-.747.747.175-.175.746-.747-.174ZM58.86 99.049c.148-.632.331-1.124.55-1.477.221-.356.484-.608.787-.757.306-.148.654-.177 1.042-.087.287.068.524.185.713.352.19.164.329.372.418.624.09.249.14.54.146.87.007.33-.05.76-.175 1.289-.146.626-.329 1.117-.548 1.473-.218.353-.48.606-.787.757-.304.149-.651.178-1.042.086-.515-.12-.876-.399-1.083-.837-.248-.526-.255-1.291-.02-2.293Zm.674.157c-.205.876-.24 1.484-.104 1.823.14.337.359.541.66.611.3.071.587-.016.86-.259.274-.243.513-.802.718-1.676.205-.878.239-1.486.1-1.823-.136-.337-.357-.541-.663-.613a.862.862 0 0 0-.81.214c-.302.272-.556.847-.76 1.723ZM63.011 100.02c.148-.632.331-1.124.55-1.477.22-.356.483-.608.787-.757.306-.148.653-.177 1.042-.086.286.067.524.184.713.35.189.165.329.373.418.625.09.249.139.54.146.871.007.33-.051.759-.175 1.288-.146.626-.329 1.117-.548 1.473-.218.354-.48.606-.788.757-.303.149-.65.178-1.041.086-.515-.12-.876-.399-1.083-.837-.248-.526-.255-1.291-.02-2.293Zm.674.157c-.205.876-.24 1.484-.104 1.823.139.337.359.541.66.611.3.071.587-.016.86-.259.274-.243.513-.802.718-1.676.205-.878.239-1.486.1-1.823-.136-.337-.358-.541-.663-.613a.863.863 0 0 0-.81.214c-.303.273-.556.847-.761 1.723ZM8.363 58.724l.324-1.387-1.398-.327.224-.958 1.398.327.325-1.387.932.218-.325 1.387 1.402.328-.224.958-1.402-.328-.324 1.387-.932-.218ZM12.156 55.871l.222-.95 3.5.818-.174.743c-.356.216-.745.556-1.168 1.017a7.373 7.373 0 0 0-1.081 1.537c-.295.56-.497 1.077-.604 1.548l-.987-.23c.19-.734.517-1.451.983-2.152a7.763 7.763 0 0 1 1.636-1.787l-2.327-.544ZM18.92 63.66l-.702-.165a7.272 7.272 0 0 1-.44-1.946 5.88 5.88 0 0 1 .12-1.823 5.66 5.66 0 0 1 .826-1.907A7.18 7.18 0 0 1 19.87 56.5l.699.164c-.505.658-.88 1.23-1.128 1.718a7.313 7.313 0 0 0-.746 2.844c-.022.435-.013.856.027 1.262.028.267.094.658.199 1.172ZM20.167 60.994l1.015.122c-.022.208.006.372.085.493.08.12.203.2.37.24.211.05.414-.006.607-.165.194-.16.383-.54.567-1.143a1.254 1.254 0 0 1-1.07.222c-.42-.098-.745-.344-.975-.739-.227-.396-.28-.854-.159-1.373.127-.542.389-.94.787-1.195.4-.257.85-.327 1.347-.21.541.126.936.44 1.185.94.25.5.262 1.228.038 2.187-.228.976-.574 1.638-1.037 1.985-.462.347-.984.453-1.564.318-.418-.098-.729-.288-.935-.569-.205-.283-.292-.654-.261-1.113Zm2.838-1.694c.078-.33.061-.604-.05-.822-.107-.217-.26-.349-.46-.396a.609.609 0 0 0-.526.115c-.158.12-.277.349-.357.689-.08.344-.072.614.026.808.098.192.25.312.453.36.197.046.38.007.55-.117.173-.124.294-.336.364-.637ZM24.317 61.965l1.016.122c-.023.208.006.372.085.493.079.12.202.2.37.24.211.05.413-.006.607-.165.193-.16.382-.54.567-1.143a1.254 1.254 0 0 1-1.07.222c-.42-.098-.745-.344-.975-.739-.228-.396-.28-.854-.159-1.373.127-.541.389-.94.786-1.195.401-.257.85-.327 1.348-.21.541.126.936.44 1.185.94.25.5.262 1.228.038 2.187-.229.976-.574 1.638-1.037 1.985-.463.347-.984.453-1.564.318-.418-.098-.73-.287-.935-.569-.205-.283-.292-.654-.262-1.113Zm2.84-1.694c.076-.33.06-.604-.05-.822-.108-.217-.262-.349-.461-.395a.61.61 0 0 0-.526.114c-.159.12-.278.35-.357.689-.08.345-.072.614.026.809.098.192.25.312.453.36.197.045.38.006.55-.118.172-.124.294-.336.364-.637ZM28.468 62.936l1.016.123c-.023.207.005.37.085.492.079.12.202.2.37.24.21.05.413-.006.607-.165.193-.16.382-.54.567-1.143a1.254 1.254 0 0 1-1.07.222c-.42-.098-.745-.344-.976-.738-.227-.397-.28-.855-.158-1.374.126-.541.389-.94.786-1.195.4-.257.85-.327 1.348-.21.54.126.936.44 1.185.941.25.499.262 1.227.038 2.186-.229.976-.574 1.638-1.037 1.985-.463.348-.984.454-1.564.318-.418-.098-.73-.287-.935-.568-.205-.284-.292-.655-.262-1.114Zm2.839-1.694c.077-.33.06-.604-.05-.822-.108-.217-.261-.349-.46-.395a.609.609 0 0 0-.526.115c-.159.119-.278.348-.357.688-.08.345-.072.614.026.809.098.192.25.312.453.36.197.045.38.006.55-.118.172-.123.293-.336.364-.637ZM31.876 66.69c.302-.385.522-.683.658-.894a7.57 7.57 0 0 0 .416-.744c.14-.284.26-.557.357-.819.097-.264.18-.538.246-.822a7.179 7.179 0 0 0 .198-1.681c-.003-.546-.085-1.226-.245-2.04l.695.163c.244.608.399 1.228.463 1.86.068.633.03 1.25-.11 1.852a6.305 6.305 0 0 1-.622 1.575 7.051 7.051 0 0 1-1.35 1.716l-.706-.166ZM38.873 66.672l.251-1.074-2.184-.511.21-.896 3.108-2.848.86.201-.793 3.386.663.155-.21.9-.663-.155-.252 1.074-.99-.232Zm.462-1.973.426-1.824-1.653 1.537 1.227.287ZM41.353 65.805l1.044.133a.907.907 0 0 0 .13.61.724.724 0 0 0 1.052.184c.189-.14.324-.385.406-.734.077-.328.06-.59-.05-.788a.746.746 0 0 0-.514-.38c-.294-.07-.587-.001-.881.204l-.802-.315 1.174-2.655 2.705.633-.224.957-1.93-.451-.372.87a1.59 1.59 0 0 1 .74-.008c.453.106.8.36 1.038.765.238.404.296.87.172 1.396a1.98 1.98 0 0 1-.657 1.086c-.457.39-.994.513-1.61.369-.494-.116-.864-.342-1.113-.68-.249-.337-.352-.736-.308-1.196ZM49.578 64.925l-1.016-.122c.023-.21-.005-.375-.084-.496a.566.566 0 0 0-.363-.238c-.216-.051-.422.003-.618.162-.193.16-.381.542-.564 1.147a1.228 1.228 0 0 1 1.056-.23c.427.1.755.349.982.745.23.397.284.853.164 1.367-.128.546-.39.947-.788 1.202s-.848.324-1.35.207a1.696 1.696 0 0 1-1.183-.937c-.249-.502-.261-1.23-.038-2.183.229-.978.574-1.641 1.037-1.989.463-.347.983-.453 1.56-.318.406.095.715.287.926.577.214.288.307.657.279 1.106Zm-2.842 1.69c-.078.332-.061.607.049.825.11.216.265.346.461.392.19.045.365.008.526-.111.16-.119.28-.347.36-.684.08-.347.072-.617-.027-.809a.654.654 0 0 0-.452-.363.655.655 0 0 0-.554.117c-.171.12-.292.332-.363.633ZM52.946 66.927c-.239-.174-.396-.372-.472-.594a1.255 1.255 0 0 1-.027-.687 1.33 1.33 0 0 1 .646-.89c.34-.194.765-.23 1.278-.111.507.119.87.34 1.088.666.221.325.285.687.192 1.085a1.204 1.204 0 0 1-.348.617 1.259 1.259 0 0 1-.646.314c.269.188.452.415.552.678.102.265.118.547.048.845-.115.493-.367.856-.754 1.09-.386.236-.84.292-1.361.17-.486-.113-.86-.335-1.123-.666-.31-.39-.405-.847-.282-1.371.067-.29.201-.537.4-.744.2-.21.47-.343.809-.402Zm.452-.981c-.048.204-.028.376.06.517a.65.65 0 0 0 .422.28.655.655 0 0 0 .506-.063c.144-.09.24-.236.287-.44a.63.63 0 0 0-.067-.5.625.625 0 0 0-.414-.28.652.652 0 0 0-.51.064.642.642 0 0 0-.284.422Zm-.63 2.264c-.065.282-.045.518.061.71a.727.727 0 0 0 .487.363.7.7 0 0 0 .577-.103c.175-.12.295-.324.362-.61.059-.25.035-.467-.07-.65a.714.714 0 0 0-.482-.355c-.25-.059-.457-.016-.621.127a.98.98 0 0 0-.313.518ZM58.529 65.618c.517.12.878.4 1.083.837.245.518.249 1.283.012 2.295-.236 1.01-.58 1.695-1.034 2.055-.374.296-.82.384-1.336.263a1.57 1.57 0 0 1-1.117-.89c-.224-.476-.217-1.225.023-2.25.235-1.004.58-1.687 1.032-2.047.374-.296.82-.384 1.337-.263Zm-.199.848a.52.52 0 0 0-.36.043c-.114.055-.223.178-.324.37-.132.247-.271.684-.418 1.31-.146.627-.216 1.065-.208 1.316.009.247.051.421.128.52.079.101.18.166.304.195a.53.53 0 0 0 .359-.039c.115-.057.224-.182.325-.373.132-.246.27-.682.417-1.308.147-.626.216-1.063.207-1.311-.008-.25-.051-.426-.13-.526a.505.505 0 0 0-.3-.197ZM65.45 71.887l-.223.95L61.64 72c.123-.35.32-.663.588-.938.27-.278.754-.615 1.45-1.013.563-.321.914-.546 1.054-.675.19-.178.31-.37.357-.577.054-.228.033-.417-.063-.568-.092-.152-.246-.253-.462-.304-.214-.05-.399-.025-.555.074-.157.1-.28.296-.368.59l-.996-.34c.192-.55.477-.91.855-1.08.378-.17.807-.199 1.288-.086.526.123.907.362 1.142.716.234.355.302.743.203 1.166-.056.24-.153.46-.292.657a2.832 2.832 0 0 1-.567.586c-.16.128-.437.303-.83.524-.391.22-.642.369-.753.446a1.874 1.874 0 0 0-.274.235l2.032.475ZM69.6 72.858l-.222.95-3.587-.838c.123-.35.32-.663.588-.938.27-.277.753-.615 1.45-1.013.562-.321.913-.546 1.053-.675.19-.178.31-.37.358-.577.054-.228.033-.417-.063-.567-.092-.153-.247-.254-.463-.305-.213-.05-.398-.025-.554.074-.157.1-.28.296-.369.59l-.995-.34c.192-.55.477-.91.855-1.08.378-.17.807-.198 1.288-.086.526.123.907.362 1.141.716.235.355.303.743.204 1.166-.056.24-.154.46-.292.657a2.831 2.831 0 0 1-.567.586c-.16.129-.437.303-.83.524-.391.22-.643.369-.753.446a1.874 1.874 0 0 0-.274.235l2.032.475Z"/></g><defs><clipPath id="a"><path fill="#fff" transform="rotate(11.586 7.08 85.358)" d="M0 0h71.183v23.111H0z"/></clipPath></defs></svg>